# AST/ASF file generated using VICON BodyLanguage
# -----------------------------------------------
:version 1.10
:name VICON
:units
  mass 1.0
  length 0.45
  angle deg
:documentation
   .ast/.asf automatically generated from VICON data using
   VICON BodyBuilder and BodyLanguage model FoxedUp or BRILLIANT.MOD
:root
   order TX TY TZ RX RY RZ
   axis XYZ
   position 0 0 0  
   orientation 0 0 0 
:bonedata
  begin
     id 1 
     name lhipjoint
     direction 0.589753 -0.68606 0.426044 
     length 2.54082 
     axis 0 0 0  XYZ
  end
  begin
     id 2 
     name lfemur
     direction 0.34202 -0.939693 0  
     length 7.04539  
     axis 0 0 20  XYZ
    dof rx ry rz
    limits (-160.0 20.0)
           (-70.0 70.0)
           (-60.0 70.0)
  end
  begin
     id 3 
     name ltibia
     direction 0.34202 -0.939693 0   
     length 7.83772   
     axis 0 0 20   XYZ
    dof rx
    limits (-10.0 170.0)
  end
  begin
     id 4 
     name lfoot
     direction 0.0596604 -0.163915 0.984669   
     length 2.39542   
     axis -90 7.62852e-016 20   XYZ
    dof rx rz
    limits (-45.0 90.0)
           (-70.0 20.0)
  end
  begin
     id 5 
     name ltoes
     direction 1.53514e-011 -4.21954e-011 1   
     length 1.2047   
     axis -90 7.62852e-016 20   XYZ
    dof rx
    limits (-90.0 20.0)
  end
  begin
     id 6 
     name rhipjoint
     direction -0.580585 -0.69168 0.429534   
     length 2.52018  
     axis 0 0 0  XYZ 
  end
  begin
     id 7 
     name rfemur
     direction -0.34202 -0.939693 0   
     length 7.0101   
     axis 0 0 -20   XYZ
    dof rx ry rz
    limits (-160.0 20.0)
           (-70.0 70.0)
           (-70.0 60.0)
  end
  begin
     id 8 
     name rtibia
     direction -0.34202 -0.939693 0   
     length 7.70628   
     axis 0 0 -20   XYZ
    dof rx
    limits (-10.0 170.0)
 end
 begin
     id 9 
     name rfoot
     direction -0.0696237 -0.19129 0.979061   
     length 2.52466  
     axis -90 -7.62852e-016 -20   XYZ
    dof rx rz
    limits (-45.0 90.0)
           (-20.0 70.0)
  end
  begin
     id 10 
     name rtoes
     direction -1.53519e-011 -4.21793e-011 1   
     length 1.266   
     axis -90 -7.62852e-016 -20   XYZ
    dof rx
    limits (-90.0 20.0)
  end
  begin
     id 11 
     name lowerback
     direction 0.00381965 0.995707 -0.0924856   
     length 2.20825   
     axis 0 0 0   XYZ
    dof rx ry rz
    limits (-20.0 45.0)
           (-30.0 30.0)
           (-30.0 30.0)
  end
  begin
     id 12 
     name upperback
     direction -0.0139043 0.999634 -0.0231929   
     length 2.21517   
     axis 0 0 0   XYZ
    dof rx ry rz
    limits (-20.0 45.0)
           (-30.0 30.0)
           (-30.0 30.0)
  end
  begin
     id 13 
     name thorax
     direction -0.0143933 0.999691 0.0202892   
     length 2.22911   
     axis 0 0 0   XYZ
    dof rx ry rz
    limits (-20.0 45.0)
           (-30.0 30.0)
           (-30.0 30.0)
  end
  begin
     id 14 
     name lowerneck
     direction -0.0251153 0.981819 0.188153   
     length 1.61782   
     axis 0 0 0   XYZ
    dof rx ry rz
    limits (-20.0 45.0)
           (-30.0 30.0)
           (-30.0 30.0)
  end
  begin
     id 15 
     name upperneck
     direction 0.0563891 0.969357 -0.239095   
     length 1.64526   
     axis 0 0 0   XYZ
    dof rx ry rz
    limits (-20.0 45.0)
           (-30.0 30.0)
           (-30.0 30.0)
  end
  begin
     id 16
     name head
     direction 0.0208328 0.99459 -0.101773  
     length 1.67436  
     axis 0 0 0   XYZ
    dof rx ry rz
    limits (-20.0 45.0)
           (-30.0 30.0)
           (-30.0 30.0)
  end
  begin
     id 17 
     name lclavicle
     direction 0.917689 0.397224 0.00772059  
     length 3.31102  
     axis 0 0 0   XYZ
    dof ry rz
    limits (-20.0 10.0)
           (0.0 20.0)
  end
  begin
     id 18 
     name lhumerus
     direction 1 -4.4896e-011 2.32308e-027   
     length 5.25537   
     axis 180 -30 -90   XYZ
    dof rx ry rz
    limits (-60.0 90.0)
           (-90.0 90.0)
           (-90.0 90.0)
  end
  begin
     id 19
     name lradius
     direction 1 -4.49005e-011 -2.04271e-027   
     length 3.38855   
     axis 180 -30 -90   XYZ
    dof rx
    limits (-10.0 170.0)
  end
  begin
     id 20
     name lwrist
     direction 1 -4.48892e-011 2.56952e-028   
     length 1.69428   
     axis -5.12785e-016 90 90   XYZ
    dof ry
    limits (-180.0 0.0)
 end
  begin
     id 21 
     name lhand
     direction 1 -4.48966e-011 5.13905e-028   
     length 0.614516   
     axis -3.27915e-016 90 90   XYZ
    dof rx rz
    limits (-90.0 90.0)
           (-45.0 45.0)
  end
  begin
     id 22 
     name lfingers
     direction 1 -4.48979e-011 1.02781e-027   
     length 0.495439   
     axis -6.5583e-016 90 90   XYZ
    dof rx
    limits (0.0 90.0)
  end
  begin
     id 23
     name lthumb
     direction 0.707107 -6.35001e-011 0.707107   
     length 0.711354   
     axis -90 45 2.85299e-015   XYZ
    dof rx rz
    limits (-45.0 45.0)
           (-45.0 45.0)
  end
  begin
     id 24 
     name rclavicle
     direction -0.938556 0.342765 -0.0403177   
     length 3.27019  
     axis 0 0 0   XYZ 
    dof ry rz
    limits (-10.0 20.0)
           (-20.0 0.0)
  end
  begin
     id 25 
     name rhumerus
     direction -1 -4.48966e-011 2.52291e-027  
     length 5.38183   
     axis 180 30 90   XYZ
    dof rx ry rz
    limits (-90.0 60.0)
           (-90.0 90.0)
           (-90.0 90.0)
  end
  begin
     id 26 
     name rradius
     direction -1 -4.4896e-011 1.5797e-027   
     length 3.16988   
     axis 180 30 90   XYZ
    dof rx
    limits (-10.0 170.0)
  end
  begin
     id 27 
     name rwrist
     direction -1 -4.48947e-011 2.56952e-028   
     length 1.58494   
     axis -5.12785e-016 -90 -90   XYZ
    dof ry
    limits (-180.0 0.0)
  end
  begin
     id 28
     name rhand
     direction -1 -4.49098e-011 5.13905e-028   
     length 0.637679   
     axis -3.27915e-016 -90 -90   XYZ
    dof rx rz
    limits (-90.0 90.0)
           (-45.0 45.0)
  end
  begin
     id 29
     name rfingers
     direction -1 -4.49026e-011 1.02781e-027   
     length 0.514113   
     axis -6.5583e-016 -90 -90   XYZ
    dof rx
    limits (0.0 90.0)
  end
  begin
     id 30
     name rthumb
     direction -0.707107 -6.3491e-011 0.707107   
     length 0.738167   
     axis -90 -45 -2.85299e-015   XYZ
    dof rx rz
    limits (-45.0 45.0)
           (-45.0 45.0)
  end
:hierarchy
  begin
    root lhipjoint rhipjoint lowerback
    lhipjoint lfemur
    lfemur ltibia
    ltibia lfoot
    lfoot ltoes
    rhipjoint rfemur
    rfemur rtibia
    rtibia rfoot
    rfoot rtoes
    lowerback upperback
    upperback thorax
    thorax lowerneck lclavicle rclavicle
    lowerneck upperneck
    upperneck head
    lclavicle lhumerus
    lhumerus lradius
    lradius lwrist
    lwrist lhand lthumb
    lhand lfingers
    rclavicle rhumerus
    rhumerus rradius
    rradius rwrist
    rwrist rhand rthumb
    rhand rfingers
  end

#!OML:ASF H:\Swim\Project 1\Capture day 1\Session 1\swimmer.ASF
:FULLY-SPECIFIED
:DEGREES
1198
root 5.92037 10.3386 15.3841 88.5069 -1.58223 -1.86101
lowerback 2.71877 -0.0803691 0.708685
upperback -7.46287 -0.272018 -2.53831
thorax -9.42725 -0.300534 -3.06558
lowerneck -31.0371 -6.6457 -9.48125
upperneck 26.0218 -8.87188 11.7249
head 15.3348 -2.98302 4.56985
rclavicle -4.77083e-015 1.03368e-014
rhumerus 31.1229 29.2531 29.5267
rradius 37.8107
rwrist -16.4559
rhand 9.75272 2.36848
rfingers 7.12502
rthumb 34.8918 -24.2128
lclavicle -4.77083e-015 1.03368e-014
lhumerus 36.288 -11.9751 -25.6594
lradius 30.3915
lwrist -7.32121
lhand 23.8984 -349.979
lfingers 7.12502
lthumb 48.1479 392.165
rfemur -5.02424 5.47665 -1.98207
rtibia 77.6476
rfoot -7.99656 -9.39922
rtoes -14.3741
lfemur -6.22367 -5.11875 -0.46852
ltibia 68.2865
lfoot 8.24574 10.9408
ltoes 14.8584
1199
root 5.9191 10.3316 15.371 88.6266 -1.61993 -1.8376
lowerback 2.66484 -0.147595 0.85587
upperback -7.30588 -0.35469 -2.58763
thorax -9.22885 -0.351172 -3.18904
lowerneck -30.8921 -6.57677 -9.47023
upperneck 26.0661 -8.78327 11.6956
head 15.3098 -2.95331 4.57776
rclavicle -9.14409e-015 6.4605e-015
rhumerus 30.3435 30.7466 29.3667
rradius 38.6009
rwrist -15.9721
rhand 9.93151 2.95602
rfingers 7.12502
rthumb 35.0614 -23.5857
lclavicle -9.14409e-015 6.4605e-015
lhumerus 35.0816 -13.923 -26.2535
lradius 30.7793
lwrist -7.02228
lhand 24.4668 -350.243
lfingers 7.12502
lthumb 48.6712 391.65
rfemur -5.01041 5.61481 -1.57513
rtibia 76.2424
rfoot -8.16331 -9.3985
rtoes -14.0591
lfemur -6.2263 -5.22059 -0.772677
ltibia 66.7244
lfoot 8.47318 10.8475
ltoes 14.8875
1200
root 5.91773 10.324 15.3578 88.7559 -1.6771 -1.81758
lowerback 2.59041 -0.21185 0.975931
upperback -7.14957 -0.4356 -2.64042
thorax -9.01984 -0.398486 -3.3014
lowerneck -30.6991 -6.51014 -9.49378
upperneck 26.0647 -8.70178 11.7271
head 15.2618 -2.92359 4.61426
rclavicle 1.59028e-015 -2.56432e-014
rhumerus 29.5627 32.2886 29.2022
rradius 39.5051
rwrist -15.5938
rhand 9.99582 3.58797
rfingers 7.12502
rthumb 35.1224 -22.9394
lclavicle 1.59028e-015 -2.56432e-014
lhumerus 33.8534 -15.9056 -26.7433
lradius 31.2762
lwrist -6.71552
lhand 24.9754 -350.563
lfingers 7.12502
lthumb 49.1385 391.101
rfemur -5.03338 5.71168 -1.20083
rtibia 74.8633
rfoot -8.4586 -9.6373
rtoes -13.5167
lfemur -6.25457 -5.30562 -1.09904
ltibia 65.17
lfoot 8.63455 10.8219
ltoes 15.0251
1201
root 5.91637 10.3161 15.3445 88.8884 -1.74587 -1.80095
lowerback 2.50534 -0.271216 1.07418
upperback -6.99358 -0.511296 -2.69227
thorax -8.80532 -0.441107 -3.40134
lowerneck -30.4555 -6.45212 -9.57743
upperneck 26.0058 -8.63622 11.8559
head 15.1902 -2.89535 4.69698
rclavicle -7.15625e-015 1.6201e-014
rhumerus 28.7757 33.8628 29.0091
rradius 40.5077
rwrist -15.346
rhand 9.93597 4.24845
rfingers 7.12502
rthumb 35.0656 -22.2923
lclavicle -7.15625e-015 1.6201e-014
lhumerus 32.6082 -17.8967 -27.0941
lradius 31.8802
lwrist -6.44934
lhand 25.4065 -350.947
lfingers 7.12502
lthumb 49.5341 390.517
rfemur -5.0852 5.76601 -0.847894
rtibia 73.5006
rfoot -8.82515 -10.1015
rtoes -12.9437
lfemur -6.30668 -5.37809 -1.4391
ltibia 63.6321
lfoot 8.71647 10.8476
ltoes 15.5928
1202
root 5.91512 10.3076 15.3314 89.0233 -1.82367 -1.78948
lowerback 2.41968 -0.326599 1.15372
upperback -6.84398 -0.582772 -2.74146
thorax -8.59787 -0.480022 -3.48883
lowerneck -30.2129 -6.39567 -9.68763
upperneck 25.9656 -8.5764 12.0251
head 15.1323 -2.86647 4.80127
rclavicle -7.95139e-016 -7.65321e-015
rhumerus 27.9854 35.4569 28.7818
rradius 41.6102
rwrist -15.2504
rhand 9.7541 4.91738
rfingers 7.12502
rthumb 34.8931 -21.6636
lclavicle -7.95139e-016 -7.65321e-015
lhumerus 31.3384 -19.8712 -27.282
lradius 32.5999
lwrist -6.24526
lhand 25.7602 -351.401
lfingers 7.12502
lthumb 49.8582 389.895
rfemur -5.16484 5.78379 -0.512893
rtibia 72.1449
rfoot -9.20406 -10.7367
rtoes -12.4888
lfemur -6.37911 -5.44607 -1.78595
ltibia 62.1271
lfoot 8.62538 10.9829
ltoes 16.7964
1203
root 5.91399 10.2989 15.3179 89.1463 -1.90222 -1.77938
lowerback 2.35027 -0.377821 1.22057
upperback -6.6947 -0.648851 -2.78368
thorax -8.40048 -0.514938 -3.56266
lowerneck -30.0541 -6.32854 -9.73257
upperneck 26.0246 -8.49986 12.0909
head 15.1224 -2.83456 4.85805
rclavicle 9.93923e-015 1.61016e-014
rhumerus 27.1588 37.0149 28.4759
rradius 42.8018
rwrist -15.2678
rhand 9.48989 5.59952
rfingers 7.12502
rthumb 34.6424 -21.0393
lclavicle 9.93923e-015 1.61016e-014
lhumerus 30.0429 -21.793 -27.2876
lradius 33.4412
lwrist -6.11196
lhand 26.042 -351.95
lfingers 7.12502
lthumb 50.1161 389.212
rfemur -5.25482 5.77715 -0.183863
rtibia 70.7875
rfoot -9.53558 -11.4516
rtoes -12.2475
lfemur -6.46639 -5.50067 -2.13476
ltibia 60.6488
lfoot 8.46051 11.1344
ltoes 17.7296
1204
root 5.91301 10.2898 15.304 89.2608 -1.98076 -1.77382
lowerback 2.28935 -0.424671 1.27739
upperback -6.54154 -0.708967 -2.81941
thorax -8.20384 -0.54566 -3.62478
lowerneck -29.9717 -6.25007 -9.70247
upperneck 26.1434 -8.40444 12.0478
head 15.1402 -2.79904 4.8617
rclavicle -6.75868e-015 -1.56046e-014
rhumerus 26.2707 38.5045 28.073
rradius 44.0949
rwrist -15.389
rhand 9.16096 6.28069
rfingers 7.12502
rthumb 34.3301 -20.4292
lclavicle -6.75868e-015 -1.56046e-014
lhumerus 28.693 -23.6297 -27.1149
lradius 34.4319
lwrist -6.02957
lhand 26.2584 -352.59
lfingers 7.12502
lthumb 50.314 388.466
rfemur -5.35402 5.76128 0.13676
rtibia 69.4318
rfoot -9.82092 -12.1368
rtoes -12.189
lfemur -6.56774 -5.53424 -2.48465
ltibia 59.1951
lfoot 8.23185 11.2758
ltoes 18.3137
1205
root 5.9121 10.2804 15.289 89.3628 -2.05426 -1.77155
lowerback 2.23371 -0.467755 1.32798
upperback -6.381 -0.763584 -2.84836
thorax -8.00229 -0.572581 -3.67691
lowerneck -29.8941 -6.15717 -9.60819
upperneck 26.211 -8.28435 11.9232
head 15.1233 -2.75806 4.8214
rclavicle -8.74653e-015 3.47873e-015
rhumerus 25.3042 39.9159 27.5619
rradius 45.5008
rwrist -15.6211
rhand 8.77212 6.94717
rfingers 7.12502
rthumb 33.9608 -19.8453
lclavicle -8.74653e-015 3.47873e-015
lhumerus 27.2774 -25.3757 -26.7898
lradius 35.5988
lwrist -5.93756
lhand 26.4116 -353.297
lfingers 7.12502
lthumb 50.4539 387.684
rfemur -5.45487 5.74586 0.455251
rtibia 68.076
rfoot -10.029 -12.6904
rtoes -12.2556
lfemur -6.67965 -5.53724 -2.82983
ltibia 57.7576
lfoot 8.00478 11.3543
ltoes 18.1938
1206
root 5.91115 10.2707 15.2728 89.4519 -2.11698 -1.77252
lowerback 2.17656 -0.505889 1.37568
upperback -6.21313 -0.810871 -2.87056
thorax -7.7918 -0.59497 -3.7211
lowerneck -29.7971 -6.05757 -9.47787
upperneck 26.2094 -8.15545 11.7681
head 15.0663 -2.71501 4.75985
rclavicle 7.95139e-016 6.36111e-015
rhumerus 24.2606 41.273 26.9764
rradius 47.0417
rwrist -16.0029
rhand 8.2931 7.57381
rfingers 7.12502
rthumb 33.5057 -19.3183
lclavicle 7.95139e-016 6.36111e-015
lhumerus 25.7919 -27.017 -26.3186
lradius 36.9495
lwrist -5.81359
lhand 26.5001 -354.056
lfingers 7.12502
lthumb 50.5347 386.881
rfemur -5.55593 5.7443 0.778215
rtibia 66.728
rfoot -10.1985 -13.0591
rtoes -12.2954
lfemur -6.79889 -5.50694 -3.16489
ltibia 56.335
lfoot 7.80478 11.3528
ltoes 17.3569
1207
root 5.91011 10.2607 15.2553 89.5285 -2.17261 -1.77598
lowerback 2.11449 -0.543877 1.41768
upperback -6.03976 -0.857714 -2.88638
thorax -7.57284 -0.616188 -3.75556
lowerneck -29.6644 -5.95711 -9.3546
upperneck 26.1368 -8.02713 11.6399
head 14.973 -2.67086 4.7075
rclavicle 6.36111e-015 -2.5842e-015
rhumerus 23.1651 42.5842 26.319
rradius 48.7064
rwrist -16.5356
rhand 7.6897 8.1436
rfingers 7.12502
rthumb 32.9319 -18.8709
lclavicle 6.36111e-015 -2.5842e-015
lhumerus 24.2197 -28.5355 -25.688
lradius 38.4707
lwrist -5.6395
lhand 26.5314 -354.838
lfingers 7.12502
lthumb 50.5634 386.084
rfemur -5.65403 5.75685 1.1017
rtibia 65.3875
rfoot -10.3464 -13.2285
rtoes -12.2345
lfemur -6.92644 -5.44363 -3.49293
ltibia 54.9369
lfoot 7.63955 11.263
ltoes 16.0891
1208
root 5.90899 10.2502 15.237 89.5965 -2.21211 -1.78081
lowerback 2.04445 -0.58637 1.46683
upperback -5.8687 -0.909873 -2.89454
thorax -7.35282 -0.640118 -3.78587
lowerneck -29.4582 -5.85548 -9.26323
upperneck 25.9711 -7.90103 11.5757
head 14.8303 -2.62505 4.68321
rclavicle 3.97569e-015 -8.94531e-016
rhumerus 22.0569 43.8679 25.6092
rradius 50.4786
rwrist -17.2128
rhand 6.94807 8.66498
rfingers 7.12502
rthumb 32.2263 -18.4953
lclavicle 3.97569e-015 -8.94531e-016
lhumerus 22.5483 -29.9156 -24.883
lradius 40.1412
lwrist -5.40411
lhand 26.4988 -355.622
lfingers 7.12502
lthumb 50.5336 385.316
rfemur -5.75518 5.77462 1.44061
rtibia 64.0518
rfoot -10.4591 -13.263
rtoes -12.1796
lfemur -7.06836 -5.35271 -3.80137
ltibia 53.5858
lfoot 7.46345 11.139
ltoes 14.6659
1209
root 5.90785 10.2393 15.2173 89.6511 -2.24343 -1.78598
lowerback 1.97092 -0.637227 1.5213
upperback -5.69826 -0.972955 -2.89768
thorax -7.13301 -0.669546 -3.81333
lowerneck -29.1799 -5.7538 -9.23033
upperneck 25.7141 -7.77783 11.6089
head 14.6434 -2.57596 4.70559
rclavicle 1.66979e-014 1.2921e-014
rhumerus 20.967 45.1095 24.8608
rradius 52.332
rwrist -17.9987
rhand 6.10055 9.17282
rfingers 7.12502
rthumb 31.4191 -18.1479
lclavicle 1.66979e-014 1.2921e-014
lhumerus 20.7577 -31.1283 -23.8869
lradius 41.9412
lwrist -5.09359
lhand 26.3873 -356.382
lfingers 7.12502
lthumb 50.4317 384.611
rfemur -5.85375 5.79139 1.78991
rtibia 62.7208
rfoot -10.5462 -13.2424
rtoes -12.2408
lfemur -7.22539 -5.24071 -4.10123
ltibia 52.3028
lfoot 7.28675 10.9864
ltoes 13.5616
1210
root 5.90669 10.2278 15.1974 89.6885 -2.27157 -1.79055
lowerback 1.90284 -0.70326 1.58431
upperback -5.5284 -1.05628 -2.89796
thorax -6.91948 -0.709489 -3.84139
lowerneck -28.8952 -5.64821 -9.24619
upperneck 25.4598 -7.64829 11.7038
head 14.4631 -2.52079 4.76387
rclavicle 7.15625e-015 8.34896e-015
rhumerus 19.9268 46.2776 24.0611
rradius 54.2301
rwrist -18.8264
rhand 5.19597 9.6959
rfingers 7.12502
rthumb 30.5569 -17.7891
lclavicle 7.15625e-015 8.34896e-015
lhumerus 18.8248 -32.1526 -22.6972
lradius 43.856
lwrist -4.65596
lhand 26.1878 -357.096
lfingers 7.12502
lthumb 50.2494 383.995
rfemur -5.9439 5.79577 2.14444
rtibia 61.3976
rfoot -10.6369 -13.2217
rtoes -12.4235
lfemur -7.39269 -5.12217 -4.39751
ltibia 51.1094
lfoot 7.04791 10.863
ltoes 13.3039
1211
root 5.90546 10.2162 15.176 89.7019 -2.29472 -1.79347
lowerback 1.84812 -0.783645 1.65603
upperback -5.35441 -1.15835 -2.89184
thorax -6.71158 -0.75897 -3.86654
lowerneck -28.6355 -5.53916 -9.29763
upperneck 25.2451 -7.50834 11.8249
head 14.3078 -2.46001 4.84304
rclavicle -5.56597e-015 1.41137e-014
rhumerus 18.9357 47.344 23.226
rradius 56.1676
rwrist -19.642
rhand 4.28176 10.2551
rfingers 7.12502
rthumb 29.6847 -17.3888
lclavicle -5.56597e-015 1.41137e-014
lhumerus 16.7469 -32.9701 -21.3107
lradius 45.8735
lwrist -4.02977
lhand 25.8524 -357.73
lfingers 7.12502
lthumb 49.9426 383.523
rfemur -6.02335 5.78849 2.50772
rtibia 60.0956
rfoot -10.7529 -13.2263
rtoes -12.6508
lfemur -7.5722 -4.98658 -4.69277
ltibia 50.0103
lfoot 6.83722 10.7132
ltoes 13.1705
